<?xml version="1.0" encoding="UTF-8" standalone="no"?>
<!-- Created with Inkscape (http://www.inkscape.org/) -->

<svg
   xmlns:dc="http://purl.org/dc/elements/1.1/"
   xmlns:cc="http://creativecommons.org/ns#"
   xmlns:rdf="http://www.w3.org/1999/02/22-rdf-syntax-ns#"
   xmlns:svg="http://www.w3.org/2000/svg"
   xmlns="http://www.w3.org/2000/svg"
   xmlns:sodipodi="http://sodipodi.sourceforge.net/DTD/sodipodi-0.dtd"
   xmlns:inkscape="http://www.inkscape.org/namespaces/inkscape"
   version="1.1"
   id="svg6872"
   xml:space="preserve"
   width="800"
   height="800"
   viewBox="0 0 800 800"
   sodipodi:docname="color-dots-circles-art.svg"
   inkscape:version="0.92.4 (5da689c313, 2019-01-14)"><metadata
     id="metadata6878"><rdf:RDF><cc:Work
         rdf:about=""><dc:format>image/svg+xml</dc:format><dc:type
           rdf:resource="http://purl.org/dc/dcmitype/StillImage" /><dc:title></dc:title></cc:Work></rdf:RDF></metadata><defs
     id="defs6876"><clipPath
       clipPathUnits="userSpaceOnUse"
       id="clipPath6888"><path
         d="M 0,600 H 600 V 0 H 0 Z"
         id="path6886"
         inkscape:connector-curvature="0" /></clipPath><linearGradient
       x1="0"
       y1="0"
       x2="1"
       y2="0"
       gradientUnits="userSpaceOnUse"
       gradientTransform="matrix(599.0376,0,0,-599.0376,-0.019043,300)"
       spreadMethod="pad"
       id="linearGradient6916"><stop
         style="stop-opacity:1;stop-color:#ec008c"
         offset="0"
         id="stop6902" /><stop
         style="stop-opacity:1;stop-color:#00adef"
         offset="0.3418652"
         id="stop6904" /><stop
         style="stop-opacity:1;stop-color:#00adef"
         offset="0.370787"
         id="stop6906" /><stop
         style="stop-opacity:1;stop-color:#ec008c"
         offset="0.67120531"
         id="stop6908" /><stop
         style="stop-opacity:1;stop-color:#ec008c"
         offset="0.719101"
         id="stop6910" /><stop
         style="stop-opacity:1;stop-color:#176fc1"
         offset="0.97808957"
         id="stop6912" /><stop
         style="stop-opacity:1;stop-color:#176fc1"
         offset="1"
         id="stop6914" /></linearGradient></defs><sodipodi:namedview
     pagecolor="#ffffff"
     bordercolor="#666666"
     borderopacity="1"
     objecttolerance="10"
     gridtolerance="10"
     guidetolerance="10"
     inkscape:pageopacity="0"
     inkscape:pageshadow="2"
     inkscape:window-width="1920"
     inkscape:window-height="1018"
     id="namedview6874"
     showgrid="false"
     inkscape:zoom="0.71969828"
     inkscape:cx="408.47458"
     inkscape:cy="406.77966"
     inkscape:window-x="-8"
     inkscape:window-y="-8"
     inkscape:window-maximized="1"
     inkscape:current-layer="g6880" /><g
     id="g6880"
     inkscape:groupmode="layer"
     inkscape:label="abstract-color-dots-18-publicdomainvectors.org"
     transform="matrix(1.3333333,0,0,-1.3333333,0,800)"><g
       id="g6882"><g
         id="g6884"
         clip-path="url(#clipPath6888)"><g
           id="g6890"><g
             id="g6892"><g
               id="g6898"><g
                 id="g6900"><path
                   d="m 226.513,333.899 c 5.715,0 10.362,4.45 10.362,9.942 0,5.514 -4.647,9.964 -10.341,9.964 -5.723,0 -10.378,-4.45 -10.357,-9.964 0,-5.492 4.634,-9.942 10.336,-9.942 m -7.611,-38.134 c 5.042,2.6 6.96,8.624 4.27,13.478 -2.686,4.854 -8.943,6.709 -13.995,4.109 -5.041,-2.578 -6.959,-8.601 -4.291,-13.455 2.699,-4.854 8.957,-6.708 14.016,-4.132 m 11.863,-37.088 c 3.194,4.559 1.936,10.755 -2.786,13.822 -4.747,3.065 -11.19,1.849 -14.383,-2.687 -3.194,-4.555 -1.949,-10.749 2.797,-13.835 4.744,-3.067 11.178,-1.854 14.372,2.7 m 28.577,-27.4 c 0.623,5.474 -3.518,10.37 -9.194,10.948 -5.684,0.574 -10.782,-3.412 -11.385,-8.86 -0.604,-5.47 3.528,-10.392 9.221,-10.944 5.685,-0.6 10.756,3.386 11.358,8.856 m 38.619,-11.284 c -2.143,5.091 -8.166,7.56 -13.473,5.515 -5.307,-2.063 -7.867,-7.879 -5.732,-12.966 2.153,-5.111 8.193,-7.56 13.491,-5.515 5.298,2.066 7.868,7.878 5.714,12.966 m 39.599,7.473 c -4.37,3.539 -10.894,3.005 -14.591,-1.213 -3.667,-4.218 -3.094,-10.497 1.288,-14.027 4.387,-3.534 10.9,-3.005 14.576,1.235 3.671,4.212 3.115,10.472 -1.273,14.005 m 31.312,24.484 c -5.583,1.151 -11.09,-2.296 -12.266,-7.663 -1.195,-5.369 2.383,-10.669 7.958,-11.814 5.597,-1.132 11.099,2.297 12.276,7.68 1.206,5.369 -2.37,10.67 -7.968,11.797 m 15.709,35.766 c -5.507,-1.512 -8.67,-7.022 -7.107,-12.322 1.582,-5.283 7.315,-8.326 12.812,-6.814 5.494,1.508 8.68,7.023 7.095,12.305 -1.58,5.301 -7.316,8.344 -12.8,6.831 m -3.59,38.667 c -4.108,-3.813 -4.228,-10.136 -0.255,-14.097 3.953,-3.936 10.497,-4.041 14.63,-0.232 4.112,3.832 4.232,10.135 0.258,14.095 -3.976,3.937 -10.519,4.041 -14.633,0.234 m -22.041,32.51 c -1.78,-5.216 1.196,-10.836 6.642,-12.543 5.438,-1.701 11.278,1.151 13.048,6.39 1.761,5.235 -1.215,10.859 -6.661,12.537 -5.419,1.707 -11.278,-1.146 -13.029,-6.384 m -35.327,18.755 c 0.977,-5.406 6.346,-9.023 11.981,-8.068 5.632,0.96 9.39,6.109 8.402,11.539 -0.99,5.41 -6.367,9.028 -11.999,8.072 -5.637,-0.961 -9.394,-6.114 -8.384,-11.543 m -40.349,0.618 c 3.497,-4.341 10.012,-5.106 14.51,-1.722 4.508,3.386 5.317,9.643 1.78,13.964 -3.502,4.346 -10.003,5.11 -14.52,1.726 -4.5,-3.385 -5.31,-9.647 -1.77,-13.968 m -35.251,54.697 c 7.255,-6.984 19.03,-6.984 26.273,0 7.255,6.985 7.255,18.309 0.021,25.269 -7.264,6.985 -19.026,6.985 -26.294,0 -7.255,-6.979 -7.255,-18.284 0,-25.269 m -59.98,-39.088 c 9.827,-2.878 20.214,2.423 23.201,11.879 3.015,9.429 -2.513,19.436 -12.337,22.312 -9.815,2.895 -20.216,-2.429 -23.21,-11.862 -2.993,-9.45 2.521,-19.434 12.346,-22.329 m -33.886,-61.598 c 10.063,1.897 16.637,11.287 14.69,20.972 -1.966,9.689 -11.721,16.012 -21.805,14.14 -10.063,-1.897 -16.646,-11.287 -14.689,-20.972 1.957,-9.688 11.725,-16.012 21.804,-14.14 m 0.122,-69.682 c 7.984,6.195 9.212,17.457 2.746,25.145 -6.464,7.664 -18.167,8.858 -26.134,2.639 -7.978,-6.214 -9.213,-17.477 -2.748,-25.141 6.454,-7.688 18.148,-8.857 26.136,-2.643 m 34.119,-61.485 c 4.015,9.088 -0.373,19.585 -9.833,23.444 -9.451,3.872 -20.363,-0.389 -24.369,-9.457 -4.009,-9.111 0.399,-19.585 9.838,-23.463 9.458,-3.853 20.372,0.386 24.364,9.476 m 60.15,-38.857 c -0.881,9.839 -9.906,17.096 -20.135,16.243 -10.222,-0.85 -17.773,-9.537 -16.892,-19.348 0.898,-9.862 9.903,-17.119 20.134,-16.269 10.231,0.873 17.791,9.54 16.893,19.374 m 72.068,-7.153 c -5.574,8.284 -17.088,10.622 -25.7,5.241 -8.609,-5.369 -11.048,-16.442 -5.475,-24.723 5.583,-8.281 17.1,-10.645 25.721,-5.259 8.601,5.387 11.049,16.462 5.454,24.741 m 67.139,26.207 c -8.984,4.792 -20.306,1.682 -25.275,-6.958 -4.972,-8.627 -1.741,-19.505 7.244,-24.297 8.977,-4.786 20.305,-1.676 25.274,6.965 4.975,8.644 1.731,19.521 -7.243,24.29 m 46.47,53.486 c -10.263,0.171 -18.733,-7.688 -18.912,-17.566 -0.198,-9.857 7.986,-17.991 18.256,-18.182 10.249,-0.171 18.724,7.686 18.901,17.56 0.188,9.88 -7.996,18.016 -18.245,18.188 m 14.923,68.189 c -9.142,-4.468 -12.789,-15.242 -8.115,-24.032 4.647,-8.795 15.847,-12.309 24.997,-7.816 9.143,4.469 12.783,15.242 8.115,24.036 -4.642,8.815 -15.853,12.305 -24.997,7.812 m -20.105,66.959 c -5.882,-8.087 -3.845,-19.221 4.557,-24.889 8.422,-5.662 20.016,-3.703 25.896,4.388 5.893,8.088 3.858,19.227 -4.563,24.909 -8.424,5.666 -20.01,3.708 -25.89,-4.408 m -50.422,50.057 c -1.265,-9.792 5.989,-18.716 16.182,-19.929 10.189,-1.194 19.452,5.771 20.707,15.565 1.266,9.813 -5.989,18.731 -16.181,19.925 -10.181,1.212 -19.462,-5.767 -20.708,-15.561 m 38.412,126.335 c 0,-18.447 15.547,-33.403 34.714,-33.403 19.188,0 34.734,14.956 34.734,33.403 0,18.447 -15.546,33.394 -34.734,33.394 -19.167,0 -34.714,-14.947 -34.714,-33.394 M 282.966,600 c -4.094,-9.022 -4.023,-19.694 1.159,-29.063 8.994,-16.289 30.027,-22.473 46.949,-13.806 16.156,8.251 22.746,27.021 15.512,42.869 z M 154.762,532.632 c 15.885,-10.312 37.472,-6.28 48.208,9.018 10.717,15.3 6.512,36.057 -9.373,46.359 -15.913,10.326 -37.483,6.281 -48.217,-9.004 -10.714,-15.3 -6.522,-36.057 9.382,-46.373 M 59.235,440.405 c 19.069,-1.941 36.15,11.366 38.158,29.717 2.004,18.342 -11.834,34.792 -30.891,36.708 -19.08,1.926 -36.18,-11.382 -38.175,-29.723 -1.996,-18.342 11.832,-34.778 30.908,-36.702 M -0.019,314.045 c 6.452,-1.268 13.353,-0.783 19.914,1.769 17.782,6.917 26.382,26.376 19.184,43.482 -6.362,15.175 -23.014,23.39 -39.098,20.23 z m 0,-132.231 c 14.555,-9.444 34.46,-6.969 46,6.243 12.325,14.127 10.398,35.191 -4.291,47.054 -12.128,9.796 -29.191,10.243 -41.709,2.136 z M 131.355,87.026 c 3.983,18.042 -7.996,35.775 -26.75,39.606 -18.75,3.838 -37.195,-7.681 -41.167,-25.714 -4.005,-18.043 7.967,-35.792 26.727,-39.624 18.762,-3.831 37.195,7.69 41.19,25.732 M 242.875,0 c 11.609,7.994 17.328,22.422 13.166,36.375 -5.29,17.737 -24.515,27.985 -42.95,22.9 C 194.655,54.193 183.99,35.701 189.288,17.97 191.538,10.425 196.312,4.232 202.468,0 Z M 389.17,0 c 0.281,0.244 0.558,0.493 0.83,0.745 13.787,12.807 14.184,33.959 0.859,47.224 -13.326,13.264 -35.307,13.635 -49.098,0.826 C 327.962,35.98 327.586,14.843 340.901,1.563 341.447,1.021 342.006,0.499 342.578,0 Z m 115.076,119.079 c -18.258,5.702 -37.838,-3.898 -43.761,-21.442 -5.93,-17.543 4.052,-36.383 22.29,-42.089 18.239,-5.696 37.83,3.907 43.761,21.451 5.932,17.543 -4.074,36.383 -22.29,42.08 m 94.773,105.828 c -7.681,6.7 -18.388,10.036 -29.386,8.168 -18.889,-3.202 -31.493,-20.524 -28.161,-38.694 3.333,-18.161 21.34,-30.295 40.219,-27.09 6.713,1.14 12.631,4.063 17.328,8.177 z m 0,79.116 c -12.192,-2.01 -25.11,2.325 -33.261,12.352 -11.802,14.543 -9.134,35.533 5.992,46.882 8.029,6.037 17.957,8.138 27.269,6.596 z"
                   style="fill:url(#linearGradient6916);stroke:none"
                   id="path6918"
                   inkscape:connector-curvature="0" /></g></g></g></g></g></g></g></svg>